<svg xmlns="http://www.w3.org/2000/svg" width="920" height="520" viewBox="0 0 920 520">
  <defs>
    <style>
      .title { font: 700 24px Arial, sans-serif; fill: #111827; }
      .label { font: 14px Arial, sans-serif; fill: #374151; }
      .axis { stroke: #6b7280; stroke-width: 2; }
      .grid { stroke: #e5e7eb; stroke-width: 1; }
      .tick { font: 12px Arial, sans-serif; fill: #4b5563; }
      .legend { font: 13px Arial, sans-serif; fill: #1f2937; }
    </style>
  </defs>

  <rect x="0" y="0" width="920" height="520" fill="#ffffff"/>
  <text x="460" y="40" text-anchor="middle" class="title">First-Order Net Comparison vs $30,000 Spend</text>

  <!-- Plot area -->
  <rect x="90" y="80" width="760" height="340" fill="#ffffff"/>

  <!-- Horizontal grid lines and y ticks -->
  <line x1="90" y1="420" x2="850" y2="420" class="grid"/>
  <line x1="90" y1="363.333" x2="850" y2="363.333" class="grid"/>
  <line x1="90" y1="306.667" x2="850" y2="306.667" class="grid"/>
  <line x1="90" y1="250" x2="850" y2="250" class="grid"/>
  <line x1="90" y1="193.333" x2="850" y2="193.333" class="grid"/>
  <line x1="90" y1="136.667" x2="850" y2="136.667" class="grid"/>
  <line x1="90" y1="80" x2="850" y2="80" class="grid"/>

  <text x="76" y="424" text-anchor="end" class="tick">-25k</text>
  <text x="76" y="367" text-anchor="end" class="tick">-20k</text>
  <text x="76" y="310" text-anchor="end" class="tick">-15k</text>
  <text x="76" y="254" text-anchor="end" class="tick">-10k</text>
  <text x="76" y="197" text-anchor="end" class="tick">-5k</text>
  <text x="76" y="140" text-anchor="end" class="tick">0</text>
  <text x="76" y="84" text-anchor="end" class="tick">5k</text>

  <!-- Axes -->
  <line x1="90" y1="80" x2="90" y2="420" class="axis"/>
  <line x1="90" y1="420" x2="850" y2="420" class="axis"/>

  <!-- Zero line -->
  <line x1="90" y1="136.667" x2="850" y2="136.667" stroke="#9ca3af" stroke-width="2" stroke-dasharray="5,5"/>

  <!-- Category labels -->
  <text x="220" y="450" text-anchor="middle" class="label">Best</text>
  <text x="470" y="450" text-anchor="middle" class="label">Base</text>
  <text x="720" y="450" text-anchor="middle" class="label">Conservative</text>

  <!-- Bars (Model 1: +4,854 / -2,476 / -9,891) -->
  <rect x="170" y="81.666" width="40" height="55.001" fill="#93c5fd"/>
  <rect x="420" y="136.667" width="40" height="28.061" fill="#93c5fd"/>
  <rect x="670" y="136.667" width="40" height="112.098" fill="#93c5fd"/>

  <!-- Bars (Model 2: -19,448 / -21,202 / -22,776) -->
  <rect x="230" y="136.667" width="40" height="220.410" fill="#fca5a5"/>
  <rect x="480" y="136.667" width="40" height="240.289" fill="#fca5a5"/>
  <rect x="730" y="136.667" width="40" height="258.128" fill="#fca5a5"/>

  <!-- Line (Model 1) -->
  <polyline points="190,81.666 440,164.728 690,248.765" fill="none" stroke="#2563eb" stroke-width="3"/>
  <circle cx="190" cy="81.666" r="5" fill="#2563eb"/>
  <circle cx="440" cy="164.728" r="5" fill="#2563eb"/>
  <circle cx="690" cy="248.765" r="5" fill="#2563eb"/>

  <!-- Line (Model 2) -->
  <polyline points="250,357.077 500,376.956 750,394.795" fill="none" stroke="#dc2626" stroke-width="3"/>
  <circle cx="250" cy="357.077" r="5" fill="#dc2626"/>
  <circle cx="500" cy="376.956" r="5" fill="#dc2626"/>
  <circle cx="750" cy="394.795" r="5" fill="#dc2626"/>

  <!-- Data labels -->
  <text x="190" y="71" text-anchor="middle" class="tick">+4,854</text>
  <text x="440" y="179" text-anchor="middle" class="tick">-2,476</text>
  <text x="690" y="263" text-anchor="middle" class="tick">-9,891</text>
  <text x="250" y="347" text-anchor="middle" class="tick">-19,448</text>
  <text x="500" y="367" text-anchor="middle" class="tick">-21,202</text>
  <text x="750" y="385" text-anchor="middle" class="tick">-22,776</text>

  <!-- Axis title -->
  <text x="24" y="255" transform="rotate(-90 24 255)" class="label">First-Order Net ($)</text>

  <!-- Legend -->
  <rect x="130" y="470" width="14" height="14" fill="#93c5fd"/>
  <line x1="130" y1="477" x2="144" y2="477" stroke="#2563eb" stroke-width="2"/>
  <text x="152" y="482" class="legend">Model 1: TikTok GMV Max</text>

  <rect x="420" y="470" width="14" height="14" fill="#fca5a5"/>
  <line x1="420" y1="477" x2="434" y2="477" stroke="#dc2626" stroke-width="2"/>
  <text x="442" y="482" class="legend">Model 2: Meta + AI UGC (no retainers)</text>
</svg>
